<?xml version="1.0" standalone="no"?>
<!DOCTYPE svg PUBLIC "-//W3C//DTD SVG 20010904//EN"
 "http://www.w3.org/TR/2001/REC-SVG-20010904/DTD/svg10.dtd">
<svg version="1.0" xmlns="http://www.w3.org/2000/svg"
 width="192.000000pt" height="145.000000pt" viewBox="0 0 192.000000 145.000000"
 preserveAspectRatio="xMidYMid meet">

<g transform="translate(0.000000,145.000000) scale(0.100000,-0.100000)"
fill="#000000" stroke="none">
<path d="M385 1162 c-93 -32 -161 -99 -212 -208 -24 -51 -28 -72 -28 -154 0
-86 3 -101 31 -161 39 -81 92 -142 159 -180 58 -33 100 -39 92 -11 -3 9 -20
58 -37 107 -26 74 -33 110 -37 205 -6 139 11 230 62 338 19 41 35 76 35 78 0
7 -13 4 -65 -14z"/>
<path d="M1004 1110 c3 -36 6 -203 7 -372 l2 -308 88 0 89 0 -2 372 -3 371
-94 1 -93 1 6 -65z"/>
<path d="M1564 1171 c-2 -2 -4 -170 -4 -373 l0 -369 86 3 85 3 0 364 c0 200
-3 366 -6 369 -7 7 -154 9 -161 3z"/>
<path d="M630 1160 c0 -6 13 -36 29 -68 78 -156 81 -376 6 -554 -40 -93 -42
-108 -16 -108 63 0 186 102 231 190 59 116 59 245 0 366 -35 72 -75 114 -145
155 -50 29 -105 39 -105 19z"/>
<path d="M1355 898 c-38 -10 -55 -33 -55 -74 0 -39 38 -74 80 -74 37 0 80 35
80 66 0 38 -26 81 -52 86 -13 2 -37 1 -53 -4z"/>
<path d="M608 363 c-16 -4 -15 -8 7 -41 14 -20 25 -47 25 -59 0 -59 45 -119
96 -129 91 -17 151 101 89 174 -40 47 -145 74 -217 55z"/>
</g>
</svg>
