<?xml version="1.0" encoding="UTF-8"?>
<svg xmlns="http://www.w3.org/2000/svg" xmlns:xlink="http://www.w3.org/1999/xlink" width="150px" height="113px" viewBox="0 0 149 113" version="1.1">
<g id="surface1">
<path style=" stroke:none;fill-rule:nonzero;fill:rgb(0%,0%,0%);fill-opacity:1;" d="M 29.878906 22.476562 C 22.660156 24.972656 17.382812 30.199219 13.425781 38.707031 C 11.5625 42.6875 11.253906 44.324219 11.253906 50.726562 C 11.253906 57.4375 11.484375 58.605469 13.660156 63.289062 C 16.683594 69.609375 20.796875 74.371094 25.996094 77.335938 C 30.5 79.910156 33.757812 80.378906 33.136719 78.195312 C 32.902344 77.492188 31.585938 73.667969 30.265625 69.84375 C 28.246094 64.070312 27.703125 61.261719 27.394531 53.847656 C 26.929688 43 28.246094 35.898438 32.207031 27.46875 C 33.679688 24.269531 34.921875 21.539062 34.921875 21.382812 C 34.921875 20.835938 33.914062 21.070312 29.878906 22.476562 Z M 29.878906 22.476562 "/>
<path style=" stroke:none;fill-rule:nonzero;fill:rgb(0%,0%,0%);fill-opacity:1;" d="M 77.914062 26.53125 C 78.148438 29.34375 78.378906 42.375 78.457031 55.5625 L 78.613281 79.597656 L 92.347656 79.597656 L 92.195312 50.570312 L 91.960938 21.617188 L 84.667969 21.539062 L 77.449219 21.460938 Z M 77.914062 26.53125 "/>
<path style=" stroke:none;fill-rule:nonzero;fill:rgb(0%,0%,0%);fill-opacity:1;" d="M 121.371094 21.773438 C 121.21875 21.929688 121.0625 35.039062 121.0625 50.882812 L 121.0625 79.675781 L 127.738281 79.445312 L 134.332031 79.210938 L 134.332031 50.804688 C 134.332031 35.195312 134.101562 22.242188 133.867188 22.007812 C 133.324219 21.460938 121.917969 21.304688 121.371094 21.773438 Z M 121.371094 21.773438 "/>
<path style=" stroke:none;fill-rule:nonzero;fill:rgb(0%,0%,0%);fill-opacity:1;" d="M 48.890625 22.632812 C 48.890625 23.097656 49.898438 25.441406 51.140625 27.9375 C 57.195312 40.113281 57.425781 57.28125 51.605469 71.171875 C 48.503906 78.429688 48.347656 79.597656 50.363281 79.597656 C 55.253906 79.597656 64.800781 71.640625 68.292969 64.773438 C 72.871094 55.71875 72.871094 45.652344 68.292969 36.210938 C 65.574219 30.589844 62.472656 27.3125 57.039062 24.113281 C 53.160156 21.851562 48.890625 21.070312 48.890625 22.632812 Z M 48.890625 22.632812 "/>
<path style=" stroke:none;fill-rule:nonzero;fill:rgb(0%,0%,0%);fill-opacity:1;" d="M 105.152344 43.078125 C 102.203125 43.859375 100.886719 45.652344 100.886719 48.851562 C 100.886719 51.894531 103.835938 54.628906 107.09375 54.628906 C 109.964844 54.628906 113.300781 51.894531 113.300781 49.476562 C 113.300781 46.511719 111.285156 43.15625 109.265625 42.765625 C 108.257812 42.609375 106.394531 42.6875 105.152344 43.078125 Z M 105.152344 43.078125 "/>
<path style=" stroke:none;fill-rule:nonzero;fill:rgb(0%,0%,0%);fill-opacity:1;" d="M 47.183594 84.828125 C 45.941406 85.140625 46.019531 85.453125 47.726562 88.027344 C 48.8125 89.589844 49.667969 91.695312 49.667969 92.632812 C 49.667969 97.234375 53.160156 101.917969 57.117188 102.699219 C 64.179688 104.027344 68.835938 94.816406 64.023438 89.121094 C 60.917969 85.453125 52.769531 83.34375 47.183594 84.828125 Z M 47.183594 84.828125 "/>
</g>
</svg>
