<svg width="70px" height="53px" viewBox="0 0 70 53" fill="none" xmlns="http://www.w3.org/2000/svg">
<g id="surface1">
<path style="fill-opacity:1;" d="M 14.035156 10.542969 C 10.644531 11.710938 8.167969 14.164062 6.308594 18.15625 C 5.433594 20.019531 5.285156 20.789062 5.285156 23.792969 C 5.285156 26.9375 5.394531 27.488281 6.417969 29.683594 C 7.839844 32.648438 9.769531 34.882812 12.214844 36.273438 C 14.328125 37.480469 15.859375 37.699219 15.566406 36.675781 C 15.457031 36.347656 14.839844 34.550781 14.21875 32.757812 C 13.269531 30.050781 13.015625 28.734375 12.871094 25.253906 C 12.652344 20.167969 13.269531 16.835938 15.128906 12.882812 C 15.824219 11.382812 16.40625 10.101562 16.40625 10.027344 C 16.40625 9.773438 15.933594 9.882812 14.035156 10.542969 Z M 14.035156 10.542969 "/>
<path style="fill-opacity:1;" d="M 36.605469 12.445312 C 36.714844 13.761719 36.824219 19.875 36.859375 26.0625 L 36.933594 37.335938 L 43.386719 37.335938 L 43.3125 23.71875 L 43.203125 10.140625 L 39.777344 10.101562 L 36.386719 10.066406 Z M 36.605469 12.445312 "/>
<path style="fill-opacity:1;" d="M 57.019531 10.210938 C 56.949219 10.285156 56.875 16.433594 56.875 23.863281 L 56.875 37.371094 L 60.011719 37.261719 L 63.109375 37.152344 L 63.109375 23.828125 C 63.109375 16.507812 63 10.429688 62.890625 10.320312 C 62.636719 10.066406 57.277344 9.992188 57.019531 10.210938 Z M 57.019531 10.210938 "/>
<path style="fill-opacity:1;" d="M 22.96875 10.613281 C 22.96875 10.835938 23.441406 11.933594 24.027344 13.105469 C 26.871094 18.8125 26.980469 26.867188 24.246094 33.382812 C 22.785156 36.785156 22.714844 37.335938 23.660156 37.335938 C 25.957031 37.335938 30.441406 33.601562 32.082031 30.378906 C 34.234375 26.132812 34.234375 21.414062 32.082031 16.984375 C 30.808594 14.347656 29.347656 12.8125 26.796875 11.308594 C 24.972656 10.25 22.96875 9.882812 22.96875 10.613281 Z M 22.96875 10.613281 "/>
<path style="fill-opacity:1;" d="M 49.402344 20.203125 C 48.015625 20.570312 47.394531 21.414062 47.394531 22.914062 C 47.394531 24.339844 48.78125 25.621094 50.3125 25.621094 C 51.660156 25.621094 53.230469 24.339844 53.230469 23.207031 C 53.230469 21.816406 52.28125 20.242188 51.332031 20.058594 C 50.859375 19.984375 49.984375 20.019531 49.402344 20.203125 Z M 49.402344 20.203125 "/>
<path style="fill-opacity:1;" d="M 22.167969 39.785156 C 21.582031 39.933594 21.621094 40.078125 22.421875 41.289062 C 22.933594 42.019531 23.332031 43.007812 23.332031 43.445312 C 23.332031 45.605469 24.972656 47.800781 26.832031 48.167969 C 30.152344 48.789062 32.339844 44.472656 30.078125 41.800781 C 28.621094 40.078125 24.792969 39.089844 22.167969 39.785156 Z M 22.167969 39.785156 "/>
</g>
</svg>
