<?xml version="1.0" standalone="no"?>
<!DOCTYPE svg PUBLIC "-//W3C//DTD SVG 20010904//EN"
 "http://www.w3.org/TR/2001/REC-SVG-20010904/DTD/svg10.dtd">
<svg version="1.0" xmlns="http://www.w3.org/2000/svg"
 width="30.000000pt" height="30.000000pt" viewBox="0 0 30.000000 30.000000"
 preserveAspectRatio="xMidYMid meet">

<g transform="translate(0.000000,30.000000) scale(0.100000,-0.100000)"
fill="#000000" stroke="none">
<path d="M100 272 c-114 -57 -101 -217 22 -254 48 -14 104 1 138 37 28 30 9
34 -27 5 -35 -27 -111 -27 -145 0 -87 68 -39 200 72 200 33 0 48 -6 71 -29 16
-17 29 -40 29 -54 0 -29 -35 -77 -56 -77 -16 0 -14 14 12 79 8 19 13 35 12 36
-2 2 -22 6 -45 10 -39 6 -46 4 -73 -23 -22 -23 -30 -40 -30 -66 0 -46 28 -65
90 -61 60 3 78 12 95 46 31 58 9 125 -49 153 -44 21 -72 20 -116 -2z m82 -102
c-4 -39 -30 -72 -55 -68 -30 4 -33 38 -6 72 28 35 65 33 61 -4z"/>
</g>
</svg>
