<?xml version="1.0" standalone="no"?>
<!DOCTYPE svg PUBLIC "-//W3C//DTD SVG 20010904//EN"
 "http://www.w3.org/TR/2001/REC-SVG-20010904/DTD/svg10.dtd">
<svg version="1.0" xmlns="http://www.w3.org/2000/svg"
 width="30.000000pt" height="30.000000pt" viewBox="0 0 30.000000 30.000000"
 preserveAspectRatio="xMidYMid meet">

<g transform="translate(0.000000,30.000000) scale(0.100000,-0.100000)"
fill="#000000" stroke="none">
<path d="M65 239 c-30 -27 -35 -37 -35 -76 0 -36 6 -50 28 -73 16 -16 45 -32
65 -35 22 -4 37 -13 37 -21 0 -21 15 -17 50 12 41 35 60 74 60 122 0 33 -6 45
-35 71 -30 26 -44 31 -85 31 -41 0 -55 -5 -85 -31z m162 -24 c30 -34 29 -77
-1 -112 -20 -24 -30 -27 -72 -25 -82 5 -128 73 -88 130 22 32 51 43 99 37 27
-2 47 -12 62 -30z"/>
<path d="M90 160 c0 -5 5 -10 10 -10 6 0 10 5 10 10 0 6 -4 10 -10 10 -5 0
-10 -4 -10 -10z"/>
<path d="M140 160 c0 -5 5 -10 10 -10 6 0 10 5 10 10 0 6 -4 10 -10 10 -5 0
-10 -4 -10 -10z"/>
<path d="M190 160 c0 -5 5 -10 10 -10 6 0 10 5 10 10 0 6 -4 10 -10 10 -5 0
-10 -4 -10 -10z"/>
</g>
</svg>
